# xmcd CD database file
#
# Track frame offsets:
#	150
#	9265
#	40559
#	53169
#	85227
#	111555
#	119091
#	150368
#	173173
#	195571
#	215684
#	225071
#
# Disc length: 3464 seconds
#
# Revision: 0
# Processed by: cddbd v1.5.2PL0 Copyright (c) Steve Scherf et al.
# Submitted via: CDex 1.70beta2
#
DISCID=8f0d860c
DTITLE=Levi - Planetium
DYEAR=2009
DGENRE=New Age
TTITLE0=Nézd az eget
TTITLE1=Planetium I
TTITLE2=A tejút mögött
TTITLE3=Fénymezőkre eső hull
TTITLE4=Ezüst tó, ami ringat
TTITLE5=Át az örök feketén
TTITLE6=A jégföld utolsó dala
TTITLE7=A szirének földjén
TTITLE8=HoldTánc
TTITLE9=Az Orion csillámló ködében
TTITLE10=Vár a Földanya
TTITLE11=Planetium II
EXTD=YEAR: 2009
EXTT0=
EXTT1=
EXTT2=
EXTT3=
EXTT4=
EXTT5=
EXTT6=
EXTT7=
EXTT8=
EXTT9=
EXTT10=
EXTT11=
PLAYORDER=
